<svg width="18" height="18" viewBox="0 0 18 18" fill="none" xmlns="http://www.w3.org/2000/svg">
<path d="M8.99984 17.3333C4.39746 17.3333 0.666504 13.6024 0.666504 9C0.666504 4.39763 4.39746 0.666666 8.99984 0.666666C13.6022 0.666666 17.3332 4.39763 17.3332 9C17.3281 13.6003 13.6001 17.3283 8.99984 17.3333ZM8.99984 2.33333C5.31794 2.33333 2.33317 5.3181 2.33317 9C2.33317 12.6819 5.31794 15.6667 8.99984 15.6667C12.6817 15.6667 15.6665 12.6819 15.6665 9C15.6624 5.31981 12.68 2.33747 8.99984 2.33333ZM13.1665 9.83333H8.1665V4.83333H9.83317V8.16667H13.1665V9.83333Z" fill="white"/>
</svg>
